/* XPM */
static char * BasicHwShader_xpm[] = {
"32 32 11 1",
" 	c None",
".	c #E5D30D",
"+	c #C7C7C7",
"@	c #393939",
"#	c #000000",
"$	c #E3E3E3",
"%	c #AAAAAA",
"&	c #555555",
"*	c #1D1D1D",
"=	c #8E8E8E",
"-	c #727272",
"................................",
"................................",
"................................",
"................................",
"................................",
"................................",
"................................",
"................................",
"................................",
"................................",
".......+@##@$#%..&&&&&&.........",
"......%##@&*##%..######.........",
".....+#*$...@#%....#&...........",
".....@#+....+#%....#&...........",
"....$#*......&=....#&...........",
"....%#&............#&...........",
"....%#&...=&&&&=...#&....=&.....",
"....+#@...&####&...#&....&#.....",
".....##$.....#&....#&....&#.....",
".....-#&.....#&....#&....&#.....",
"......*#*=%=@#&..&&#*&&&&*#.....",
"......$-#####@%..##########.....",
".........%%%....................",
"................................",
"................................",
"................................",
"................................",
"................................",
"................................",
"................................",
"................................",
"................................"};
